# xmcd
#
# Track frame offsets:
#	150
#	12923
#	30415
#	47088
#	63205
#	78380
#	98013
#	112428
#	125568
#	148755
#	163290
#	177350
#	197395
#
# Disc length: 2835 seconds
#
# Revision: 1
# Processed by: cddbd v1.5.2PL0 Copyright (c) Steve Scherf et al.
# Submitted via: EasyCDDAExtractor 15.3.0.1
#
DISCID=b00b110d
DTITLE=Rocio Durcal - El Concierto ...En Vivo - CD 1
DYEAR=1992
DGENRE=Latin
TTITLE0=Introduccion Instrumental
TTITLE1=Quedate Conmigo Esta Noche
TTITLE2=La Gata Bajo La Lluvia
TTITLE3=Jamas Te Dejare
TTITLE4=Volver A Verte
TTITLE5=Mi Amigo
TTITLE6=Acompañame (A Duo Con Enrique Guzman)
TTITLE7=Ya Te Olvide
TTITLE8=Te Amo
TTITLE9=Tenias Que Ser Tan Cruel
TTITLE10=Se Me Fue Olvidando
TTITLE11=Frente A Frente
TTITLE12=No Me Vuelvo A Enamorar (A Duo Con Juan Gabriel)
EXTD=YEAR: 1992 ID3G: 115
EXTT0=
EXTT1=
EXTT2=
EXTT3=
EXTT4=
EXTT5=
EXTT6=
EXTT7=
EXTT8=
EXTT9=
EXTT10=
EXTT11=
EXTT12=
PLAYORDER=
